<svg width="18" height="18" viewBox="0 0 18 18" fill="none" xmlns="http://www.w3.org/2000/svg">
<path d="M17.3084 14.2748C17.3084 14.5748 17.2417 14.8832 17.1001 15.1832C16.9584 15.4832 16.7751 15.7665 16.5334 16.0332C16.1251 16.4832 15.6751 16.8082 15.1667 17.0165C14.6667 17.2248 14.1251 17.3332 13.5417 17.3332C12.6917 17.3332 11.7834 17.1332 10.8251 16.7248C9.86675 16.3165 8.90842 15.7665 7.95842 15.0748C7.00008 14.3748 6.09175 13.5998 5.22508 12.7415C4.36675 11.8748 3.59175 10.9665 2.90008 10.0165C2.21675 9.0665 1.66675 8.1165 1.26675 7.17484C0.866748 6.22484 0.666748 5.3165 0.666748 4.44984C0.666748 3.88317 0.766748 3.3415 0.966748 2.8415C1.16675 2.33317 1.48341 1.8665 1.92508 1.44984C2.45841 0.924837 3.04175 0.666504 3.65841 0.666504C3.89175 0.666504 4.12508 0.716504 4.33341 0.816504C4.55008 0.916504 4.74175 1.0665 4.89175 1.28317L6.82508 4.00817C6.97508 4.2165 7.08341 4.40817 7.15841 4.5915C7.23341 4.7665 7.27508 4.9415 7.27508 5.09984C7.27508 5.29984 7.21675 5.49984 7.10008 5.6915C6.99175 5.88317 6.83341 6.08317 6.63341 6.28317L6.00008 6.9415C5.90841 7.03317 5.86675 7.1415 5.86675 7.27484C5.86675 7.3415 5.87508 7.39984 5.89175 7.4665C5.91675 7.53317 5.94175 7.58317 5.95842 7.63317C6.10842 7.90817 6.36675 8.2665 6.73341 8.69984C7.10841 9.13317 7.50841 9.57484 7.94175 10.0165C8.39175 10.4582 8.82508 10.8665 9.26675 11.2415C9.70008 11.6082 10.0584 11.8582 10.3417 12.0082C10.3834 12.0248 10.4334 12.0498 10.4917 12.0748C10.5584 12.0998 10.6251 12.1082 10.7001 12.1082C10.8417 12.1082 10.9501 12.0582 11.0417 11.9665L11.6751 11.3415C11.8834 11.1332 12.0834 10.9748 12.2751 10.8748C12.4667 10.7582 12.6584 10.6998 12.8667 10.6998C13.0251 10.6998 13.1917 10.7332 13.3751 10.8082C13.5584 10.8832 13.7501 10.9915 13.9584 11.1332L16.7167 13.0915C16.9334 13.2415 17.0834 13.4165 17.1751 13.6248C17.2584 13.8332 17.3084 14.0415 17.3084 14.2748Z" stroke="white" stroke-width="1.2" stroke-miterlimit="10"/>
<path d="M14.4167 6.49967C14.4167 5.99967 14.025 5.23301 13.4417 4.60801C12.9083 4.03301 12.2 3.58301 11.5 3.58301" stroke="white" stroke-width="1.2" stroke-linecap="round" stroke-linejoin="round"/>
<path d="M17.3333 6.49984C17.3333 3.27484 14.725 0.666504 11.5 0.666504" stroke="white" stroke-width="1.2" stroke-linecap="round" stroke-linejoin="round"/>
</svg>
