<svg width="20" height="20" viewBox="0 0 20 20" fill="none" xmlns="http://www.w3.org/2000/svg">
<path d="M10.0001 1.6665H7.25008C5.66675 1.6665 4.41675 2.9165 4.41675 4.4165C4.41675 5.9165 5.66675 7.1665 7.16675 7.1665H10.0001V1.6665Z" stroke="white" stroke-miterlimit="10"/>
<path d="M10 7.25H7.25C5.75 7.25 4.5 8.5 4.5 10C4.5 11.5 5.75 12.75 7.25 12.75H10V7.25Z" stroke="white" stroke-miterlimit="10"/>
<path d="M10 12.75H7.25C5.75 12.75 4.5 14 4.5 15.5C4.5 17 5.75 18.25 7.25 18.25C8.75 18.25 10 17 10 15.5V12.75Z" stroke="white" stroke-miterlimit="10"/>
<path d="M10 1.6665H12.75C14.25 1.6665 15.5 2.9165 15.5 4.4165C15.5 5.9165 14.25 7.1665 12.75 7.1665H10V1.6665Z" stroke="white" stroke-miterlimit="10"/>
<path d="M12.75 7.25C14.25 7.25 15.5 8.5 15.5 10C15.5 11.5 14.25 12.75 12.75 12.75C11.25 12.75 10 11.5 10 10C10 8.5 11.25 7.25 12.75 7.25Z" stroke="white" stroke-miterlimit="10"/>
</svg>
