<svg width="44" height="32" viewBox="0 0 44 32" fill="none" xmlns="http://www.w3.org/2000/svg">
<path d="M14.9688 0.375C13.5201 0.38076 12.1325 0.95878 11.1081 1.98312C10.0838 3.00747 9.50576 4.39512 9.5 5.84375C9.5 8.84688 11.9656 11.3125 14.9688 11.3125C17.9719 11.3125 20.4375 8.84688 20.4375 5.84375C20.4375 2.84062 17.9719 0.375 14.9688 0.375ZM29.0312 0.375C27.5826 0.38076 26.195 0.95878 25.1706 1.98312C24.1463 3.00747 23.5683 4.39512 23.5625 5.84375C23.5625 8.84688 26.0281 11.3125 29.0312 11.3125C32.0344 11.3125 34.5 8.84688 34.5 5.84375C34.5 2.84062 32.0344 0.375 29.0312 0.375ZM14.9688 3.5C16.2812 3.5 17.3125 4.53125 17.3125 5.84375C17.3125 7.15625 16.2812 8.1875 14.9688 8.1875C13.6562 8.1875 12.625 7.15625 12.625 5.84375C12.625 4.53125 13.6562 3.5 14.9688 3.5ZM29.0312 3.5C30.3438 3.5 31.375 4.53125 31.375 5.84375C31.375 7.15625 30.3438 8.1875 29.0312 8.1875C27.7188 8.1875 26.6875 7.15625 26.6875 5.84375C26.6875 4.53125 27.7188 3.5 29.0312 3.5ZM7.9375 9.75C4.5 9.75 1.6875 12.5625 1.6875 16C1.6875 17.7391 2.43281 19.3078 3.59219 20.4438C2.52863 21.1615 1.65671 22.1283 1.05239 23.2602C0.448077 24.392 0.1297 25.6544 0.125 26.9375H3.25C3.25 24.3312 5.33125 22.25 7.9375 22.25C10.5437 22.25 12.625 24.3312 12.625 26.9375H15.75C15.7453 25.6544 15.4269 24.392 14.8226 23.2602C14.2183 22.1283 13.3464 21.1615 12.2828 20.4438C13.4422 19.3078 14.1875 17.7406 14.1875 16C14.1875 12.5625 11.375 9.75 7.9375 9.75ZM15.75 26.9375C14.7734 28.2437 14.1875 29.8859 14.1875 31.625H17.3125C17.3125 29.0187 19.3937 26.9375 22 26.9375C24.6063 26.9375 26.6875 29.0187 26.6875 31.625H29.8125C29.8098 29.935 29.2618 28.2911 28.25 26.9375C27.7188 26.2297 27.0781 25.625 26.3453 25.1313C27.5047 23.9953 28.25 22.4281 28.25 20.6875C28.25 17.25 25.4375 14.4375 22 14.4375C18.5625 14.4375 15.75 17.25 15.75 20.6875C15.75 22.4266 16.4953 23.9953 17.6547 25.1313C16.9232 25.6226 16.2794 26.2331 15.75 26.9375ZM28.25 26.9375H31.375C31.375 24.3312 33.4562 22.25 36.0625 22.25C38.6688 22.25 40.75 24.3312 40.75 26.9375H43.875C43.8703 25.6544 43.5519 24.392 42.9476 23.2602C42.3433 22.1283 41.4714 21.1615 40.4078 20.4438C41.5672 19.3078 42.3125 17.7406 42.3125 16C42.3125 12.5625 39.5 9.75 36.0625 9.75C32.625 9.75 29.8125 12.5625 29.8125 16C29.8125 17.7391 30.5578 19.3078 31.7172 20.4438C30.6536 21.1615 29.7817 22.1283 29.1774 23.2602C28.5731 24.392 28.2547 25.6544 28.25 26.9375ZM7.9375 12.875C9.68281 12.875 11.0625 14.2547 11.0625 16C11.0625 17.7453 9.68281 19.125 7.9375 19.125C6.19219 19.125 4.8125 17.7453 4.8125 16C4.8125 14.2547 6.19219 12.875 7.9375 12.875ZM36.0625 12.875C37.8078 12.875 39.1875 14.2547 39.1875 16C39.1875 17.7453 37.8078 19.125 36.0625 19.125C34.3172 19.125 32.9375 17.7453 32.9375 16C32.9375 14.2547 34.3172 12.875 36.0625 12.875ZM22 17.5625C23.7453 17.5625 25.125 18.9422 25.125 20.6875C25.125 22.4328 23.7453 23.8125 22 23.8125C20.2547 23.8125 18.875 22.4328 18.875 20.6875C18.875 18.9422 20.2547 17.5625 22 17.5625Z" fill="#33B1E1"/>
</svg>
